@startuml
' @diagram_type auto
interface Command {
    execute()
    undo()
}
class Invoker{
    setCommand()
}
class Client
class Receiver{
    action()
}
class ConcreteCommand{
    execute()
    undo()
}

Command <|-- ConcreteCommand
Client --> Receiver
Client --> ConcreteCommand
Invoker o--> Command
Receiver <-- ConcreteCommand
@enduml
